<svg width="573" height="120" viewBox="0 0 573 120" fill="none" xmlns="http://www.w3.org/2000/svg">
<path d="M76.569 44.6606C76.3506 46.176 75.3493 47.4669 73.8876 47.9224C68.021 49.7505 59.0336 51.8945 49.3065 54.215C37.1736 57.1094 23.8897 60.2784 14.0759 63.4511C12.9409 63.8181 11.9086 61.9133 12.8634 61.1983L29.8231 48.4976C30.963 47.6439 31.5704 46.2476 31.3671 44.838C30.6583 39.9229 29.4943 34.8941 27.8749 29.7517C24.8795 20.1914 20.8696 12.6287 15.8452 7.06378C14.7591 5.86093 15.3058 3.85155 16.8943 3.53054C40.2792 -1.19533 64.9368 -1.17677 90.8673 3.58621C92.4822 3.88283 93.066 5.92555 91.9691 7.14727C86.9799 12.7043 82.995 20.2391 80.0145 29.7517C78.4173 34.8377 77.2688 39.8074 76.569 44.6606Z" fill="#141217"/>
<path d="M85.5713 56.563C89.6964 54.1037 92.5824 51.1093 94.2293 47.58C95.1676 45.5979 95.7931 43.2306 96.1058 40.4782C96.225 39.4283 97.6591 39.1444 98.0455 40.1278C98.9319 42.384 99.8183 44.9958 100.705 47.9633C102.703 54.5907 103.791 60.4596 103.966 65.5699C104.35 76.8127 101.44 85.069 95.2366 90.3391C89.6885 95.0821 81.1584 97.6532 69.6465 98.0525C69.5345 98.0525 66.1849 98.0684 59.5975 98.1003C53.0261 98.1163 47.3261 98.2121 42.4974 98.3878C29.0189 98.8509 18.9779 103.219 12.3745 111.491C10.6014 113.737 9.02954 116.328 7.65909 119.265C7.28216 120.073 6.1019 120.07 5.75944 119.247C4.33092 115.815 3.53003 113.852 3.35677 113.359C1.26224 107.834 0.151037 103.227 0.0231269 99.5376C-0.120773 95.2418 0.406853 91.6326 1.60601 88.7101C2.85314 85.6759 4.97965 83.0568 7.98555 80.853C13.4697 76.8127 24.0863 73.1556 39.8353 69.8818C52.4025 67.2627 61.8279 65.0669 68.1115 63.2943C70.7817 62.5437 73.2439 61.7771 75.4984 60.9946C79.6075 59.5733 82.9652 58.0961 85.5713 56.563Z" fill="#141217"/>
<path d="M187.452 111C182.323 111 178.903 108.657 177.193 103.971L141 10.1518C142.045 9.578 143.422 9.09981 145.132 8.71727C146.937 8.23909 148.6 8 150.119 8C158.289 8 163.514 11.2994 165.794 17.8983L187.452 77.9714L184.46 86.3259L208.969 17.8983C211.439 11.2994 216.663 8 224.643 8C226.163 8 227.778 8.23909 229.488 8.71727C231.292 9.09981 232.717 9.578 233.762 10.1518L197.712 103.971C196.002 108.657 192.582 111 187.452 111Z" fill="#141217"/>
<path d="M263.434 111C257.544 111 252.082 109.805 247.047 107.414C242.108 105.023 238.165 101.771 235.221 97.6588C232.276 93.5464 230.803 88.9559 230.803 83.8872V65.5251C230.803 60.1695 232.276 55.292 235.221 50.8928C238.26 46.3979 242.298 42.9072 247.332 40.4206C252.367 37.9341 257.782 36.6908 263.576 36.6908C269.276 36.6908 274.501 37.8863 279.251 40.2772C284.095 42.5724 287.895 45.8719 290.65 50.1755C293.405 54.3835 294.782 59.1653 294.782 64.5209V72.2674C294.782 74.5627 293.927 76.5232 292.217 78.149C290.507 79.6792 288.323 80.4443 285.663 80.4443H249.755V82.4527C249.755 86.2781 250.895 89.4341 253.175 91.9206C255.549 94.3115 259.017 95.507 263.576 95.507C268.041 95.507 271.319 94.5506 273.408 92.6379C275.498 90.6295 276.543 88.143 276.543 85.1783C278.443 84.987 279.868 84.8914 280.818 84.8914C284.713 84.8914 287.705 85.7043 289.795 87.3301C291.885 88.9559 292.93 91.3468 292.93 94.5028C292.93 97.085 291.647 99.6671 289.083 102.249C286.518 104.831 282.955 106.935 278.396 108.561C273.931 110.187 268.944 111 263.434 111ZM277.113 66.5293V64.5209C277.113 60.6954 275.831 57.6829 273.266 55.4833C270.796 53.188 267.519 52.0404 263.434 52.0404C259.349 52.0404 256.024 53.188 253.46 55.4833C250.99 57.6829 249.755 60.6954 249.755 64.5209V66.5293H277.113Z" fill="#141217"/>
<path d="M337.698 111C328.008 111 320.361 109.374 314.757 106.123C309.152 102.775 306.35 98.3282 306.35 92.7813C306.35 90.2948 307.395 88.1908 309.484 86.4694C311.669 84.7479 315.137 83.8872 319.886 83.8872C320.646 87.7126 322.546 90.7252 325.586 92.9248C328.626 95.0288 332.188 96.0808 336.273 96.0808C341.023 96.0808 344.68 95.507 347.245 94.3593C349.905 93.2117 351.235 91.5381 351.235 89.3384C351.235 87.4257 350.19 85.7521 348.1 84.3176C346.01 82.883 341.83 81.4007 335.561 79.8705C328.246 78.149 322.546 76.4276 318.462 74.7061C314.472 72.889 311.527 70.6416 309.627 67.9638C307.727 65.286 306.777 61.7475 306.777 57.3482C306.777 51.1319 309.342 46.1588 314.472 42.429C319.696 38.6035 326.964 36.6908 336.273 36.6908C345.392 36.6908 352.802 38.2688 358.502 41.4248C364.201 44.5808 367.051 48.7888 367.051 54.0487C367.051 56.7266 366.054 58.6871 364.059 59.9304C362.064 61.078 358.739 61.6996 354.084 61.7953C352.85 58.1611 350.95 55.4833 348.385 53.7618C345.915 51.9448 342.353 51.0362 337.698 51.0362C334.373 51.0362 331.428 51.61 328.863 52.7577C326.299 53.9053 325.016 55.292 325.016 56.9178C325.016 58.7349 326.061 60.1695 328.151 61.2214C330.336 62.2734 333.946 63.3254 338.98 64.3774C349.905 66.7683 357.742 69.9243 362.492 73.8454C367.336 77.7665 369.759 83.0743 369.759 89.7688C369.759 93.8812 368.476 97.5631 365.911 100.815C363.346 104.066 359.642 106.601 354.797 108.418C349.952 110.139 344.253 111 337.698 111Z" fill="#141217"/>
<path d="M411.449 111C401.759 111 394.112 109.374 388.507 106.123C382.903 102.775 380.1 98.3282 380.1 92.7813C380.1 90.2948 381.145 88.1908 383.235 86.4694C385.42 84.7479 388.887 83.8872 393.637 83.8872C394.397 87.7126 396.297 90.7252 399.337 92.9248C402.377 95.0288 405.939 96.0808 410.024 96.0808C414.773 96.0808 418.431 95.507 420.996 94.3593C423.655 93.2117 424.985 91.5381 424.985 89.3384C424.985 87.4257 423.94 85.7521 421.851 84.3176C419.761 82.883 415.581 81.4007 409.311 79.8705C401.997 78.149 396.297 76.4276 392.212 74.7061C388.222 72.889 385.278 70.6416 383.378 67.9638C381.478 65.286 380.528 61.7475 380.528 57.3482C380.528 51.1319 383.093 46.1588 388.222 42.429C393.447 38.6035 400.714 36.6908 410.024 36.6908C419.143 36.6908 426.553 38.2688 432.252 41.4248C437.952 44.5808 440.802 48.7888 440.802 54.0487C440.802 56.7266 439.805 58.6871 437.81 59.9304C435.815 61.078 432.49 61.6996 427.835 61.7953C426.6 58.1611 424.7 55.4833 422.136 53.7618C419.666 51.9448 416.103 51.0362 411.449 51.0362C408.124 51.0362 405.179 51.61 402.614 52.7577C400.049 53.9053 398.767 55.292 398.767 56.9178C398.767 58.7349 399.812 60.1695 401.902 61.2214C404.087 62.2734 407.696 63.3254 412.731 64.3774C423.655 66.7683 431.492 69.9243 436.242 73.8454C441.087 77.7665 443.509 83.0743 443.509 89.7688C443.509 93.8812 442.227 97.5631 439.662 100.815C437.097 104.066 433.392 106.601 428.548 108.418C423.703 110.139 418.003 111 411.449 111Z" fill="#141217"/>
<path d="M487.052 111C481.162 111 475.7 109.805 470.665 107.414C465.725 105.023 461.783 101.771 458.838 97.6588C455.893 93.5464 454.421 88.9559 454.421 83.8872V65.5251C454.421 60.1695 455.893 55.292 458.838 50.8928C461.878 46.3979 465.915 42.9072 470.95 40.4206C475.985 37.9341 481.4 36.6908 487.194 36.6908C492.894 36.6908 498.119 37.8863 502.868 40.2772C507.713 42.5724 511.513 45.8719 514.268 50.1755C517.023 54.3835 518.4 59.1653 518.4 64.5209V72.2674C518.4 74.5627 517.545 76.5232 515.835 78.149C514.125 79.6792 511.94 80.4443 509.28 80.4443H473.373V82.4527C473.373 86.2781 474.512 89.4341 476.792 91.9206C479.167 94.3115 482.634 95.507 487.194 95.507C491.659 95.507 494.936 94.5506 497.026 92.6379C499.116 90.6295 500.161 88.143 500.161 85.1783C502.061 84.987 503.486 84.8914 504.436 84.8914C508.331 84.8914 511.323 85.7043 513.413 87.3301C515.503 88.9559 516.548 91.3468 516.548 94.5028C516.548 97.085 515.265 99.6671 512.7 102.249C510.135 104.831 506.573 106.935 502.013 108.561C497.549 110.187 492.561 111 487.052 111ZM500.731 66.5293V64.5209C500.731 60.6954 499.449 57.6829 496.884 55.4833C494.414 53.188 491.137 52.0404 487.052 52.0404C482.967 52.0404 479.642 53.188 477.077 55.4833C474.607 57.6829 473.373 60.6954 473.373 64.5209V66.5293H500.731Z" fill="#141217"/>
<path d="M555.473 111C547.209 111 540.987 108.657 536.807 103.971C532.627 99.1889 530.537 93.1639 530.537 85.8955V19.4763C530.537 15.364 532.105 12.4471 535.24 10.7256C538.469 8.90854 543.409 8 550.059 8V85.1783C550.059 88.3343 550.771 90.6295 552.196 92.0641C553.621 93.403 555.853 94.0724 558.893 94.0724C562.503 94.0724 566.065 93.1161 569.58 91.2033C570.625 92.1597 571.433 93.3552 572.003 94.7897C572.668 96.2242 573 97.6588 573 99.0933C573 102.154 571.48 104.927 568.44 107.414C565.495 109.805 561.173 111 555.473 111Z" fill="#141217"/>
</svg>
